<mxfile host="app.diagrams.net" agent="Mozilla/5.0 (Windows NT 10.0; Win64; x64) AppleWebKit/537.36 (KHTML, like Gecko) Chrome/128.0.0.0 Safari/537.36 Edg/128.0.0.0" version="24.7.13">
  <diagram name="Page-1" id="9W-sOv-dYj6pa3i9w2rR">
    <mxGraphModel dx="1666" dy="749" grid="1" gridSize="10" guides="1" tooltips="1" connect="1" arrows="1" fold="1" page="1" pageScale="1" pageWidth="850" pageHeight="1100" math="0" shadow="0">
      <root>
        <mxCell id="0" />
        <mxCell id="1" parent="0" />
        <mxCell id="4iPWvm5oYyeoY1g7XsAB-6" value="&lt;div&gt;&lt;font style=&quot;font-size: 9px;&quot;&gt;Dependencies:&lt;/font&gt;&lt;/div&gt;&lt;div&gt;&lt;font style=&quot;font-size: 9px;&quot;&gt;- Modules\mpi_module\mpi_stub.f9: MPI_Init, MPI_Comm_size, MPI_Comm_rank,&amp;nbsp;MPI_Barrier&lt;/font&gt;&lt;/div&gt;&lt;div&gt;&lt;font style=&quot;font-size: 9px;&quot;&gt;-&amp;nbsp;Driver\MESH_Driver\module_files.f90:&amp;nbsp;Init_fls&lt;/font&gt;&lt;/div&gt;&lt;div&gt;&lt;font style=&quot;font-size: 9px;&quot;&gt;- Driver\MESH_Driver\read_initial_inputs.f90:&amp;nbsp;&lt;/font&gt;&lt;/div&gt;&lt;div&gt;&lt;font style=&quot;font-size: 9px;&quot;&gt;&lt;span style=&quot;white-space: pre;&quot;&gt;&#x9;&lt;/span&gt;READ_INITIAL_INPUTS&lt;/font&gt;&lt;/div&gt;&lt;div&gt;- &lt;font style=&quot;font-size: 9px;&quot;&gt;Modules\io_modules\input_forcing.f90:&amp;nbsp;&lt;/font&gt;&lt;/div&gt;&lt;blockquote style=&quot;margin: 0 0 0 40px; border: none; padding: 0px;&quot;&gt;&lt;div&gt;&lt;font style=&quot;font-size: 9px;&quot;&gt;&lt;span style=&quot;text-align: center; background-color: initial;&quot;&gt;open_input_forcing_files&lt;/span&gt;&lt;span style=&quot;background-color: initial;&quot;&gt;,&amp;nbsp;&lt;/span&gt;&lt;/font&gt;&lt;/div&gt;&lt;div&gt;&lt;span style=&quot;background-color: initial; text-align: center;&quot;&gt;&lt;font style=&quot;font-size: 9px;&quot;&gt;get_start_date_components_from_forcing_files,&lt;/font&gt;&lt;/span&gt;&lt;/div&gt;&lt;div&gt;&lt;span style=&quot;background-color: initial; text-align: center;&quot;&gt;&lt;font style=&quot;font-size: 9px;&quot;&gt;skip_to_first_forcing_record&lt;/font&gt;&lt;br&gt;&lt;/span&gt;&lt;/div&gt;&lt;/blockquote&gt;&lt;div&gt;&lt;font style=&quot;font-size: 9px;&quot;&gt;-&amp;nbsp;Driver\MESH_Driver\output_variables.f90:&lt;/font&gt;&amp;nbsp;&lt;/div&gt;&lt;div&gt;&lt;span style=&quot;white-space: pre;&quot;&gt;&#x9;&lt;/span&gt;&lt;font style=&quot;font-size: 9px;&quot;&gt;output_variables_init,&amp;nbsp;output_variables_activate,&amp;nbsp;&lt;/font&gt;&lt;/div&gt;&lt;div&gt;&lt;span style=&quot;white-space: pre;&quot;&gt;&#x9;&lt;/span&gt;&lt;font style=&quot;font-size: 9px;&quot;&gt;output_variables_reset,&amp;nbsp;output_variables_update&lt;/font&gt;&lt;/div&gt;&lt;div&gt;&lt;font style=&quot;font-size: 9px;&quot;&gt;-&amp;nbsp;Driver\MESH_Driver\sa_mesh_run_within_tile.f90:&amp;nbsp;&lt;/font&gt;&lt;/div&gt;&lt;div&gt;&lt;span style=&quot;white-space: pre;&quot;&gt;&#x9;&lt;/span&gt;&lt;font style=&quot;font-size: 9px;&quot;&gt;run_within_tile_init,&amp;nbsp;run_within_tile,&amp;nbsp;run_within_tile_finalize&lt;/font&gt;&lt;/div&gt;&lt;div&gt;&lt;font style=&quot;font-size: 9px;&quot;&gt;-&amp;nbsp;Driver\MESH_Driver\sa_mesh_run_within_grid.f90:&amp;nbsp;&lt;/font&gt;&amp;nbsp;&lt;/div&gt;&lt;div&gt;&lt;span style=&quot;white-space: pre;&quot;&gt;&#x9;&lt;/span&gt;&lt;font style=&quot;font-size: 9px;&quot;&gt;run_within_grid_init,&amp;nbsp;run_within_grid_mpi_irecv,&lt;/font&gt;&amp;nbsp;&lt;/div&gt;&lt;div&gt;&lt;span style=&quot;white-space: pre;&quot;&gt;&#x9;&lt;/span&gt;&lt;font style=&quot;font-size: 9px;&quot;&gt;run_within_grid,&amp;nbsp;run_within_grid_mpi_isend,&amp;nbsp;run_within_grid_finalize&lt;/font&gt;&lt;/div&gt;&lt;div&gt;&lt;div&gt;&lt;font style=&quot;font-size: 9px;&quot;&gt;-&amp;nbsp;Driver\MESH_Driver\&lt;span style=&quot;text-align: center;&quot;&gt;run_between_grid_init&lt;/span&gt;.f90:&amp;nbsp;&lt;/font&gt;&amp;nbsp;&lt;/div&gt;&lt;div style=&quot;text-align: center;&quot;&gt;&lt;span style=&quot;white-space: pre;&quot;&gt;&#x9;&lt;/span&gt;&lt;font style=&quot;font-size: 9px;&quot;&gt;&lt;span style=&quot;text-align: center; background-color: initial;&quot;&gt;run_between_grid_init,&amp;nbsp;&lt;/span&gt;&lt;span style=&quot;text-align: center; background-color: initial;&quot;&gt;run_between_grid,&amp;nbsp;&lt;/span&gt;&lt;/font&gt;&lt;span style=&quot;background-color: initial;&quot;&gt;&lt;font style=&quot;font-size: 9px;&quot;&gt;run_between_grid_finalize&lt;/font&gt;&lt;/span&gt;&lt;/div&gt;&lt;/div&gt;&lt;div style=&quot;text-align: left;&quot;&gt;&lt;font style=&quot;font-size: 9px;&quot;&gt;&lt;span style=&quot;text-align: center; background-color: initial;&quot;&gt;-&amp;nbsp;&lt;/span&gt;&lt;span style=&quot;background-color: initial;&quot;&gt;Driver\MESH_Driver\output_files.f90:&amp;nbsp;&lt;/span&gt;&lt;span style=&quot;background-color: initial;&quot;&gt;output_files_init,&amp;nbsp;&lt;/span&gt;&lt;/font&gt;&lt;/div&gt;&lt;div style=&quot;text-align: left;&quot;&gt;&lt;span style=&quot;background-color: initial;&quot;&gt;&lt;span style=&quot;white-space: pre;&quot;&gt;&#x9;&lt;/span&gt;&lt;font style=&quot;font-size: 9px;&quot;&gt;output_files_update,&amp;nbsp;&lt;/font&gt;&lt;/span&gt;&lt;span style=&quot;background-color: initial;&quot;&gt;&lt;font style=&quot;font-size: 9px;&quot;&gt;output_files_finalize&lt;/font&gt;&lt;/span&gt;&lt;/div&gt;&lt;div style=&quot;text-align: left;&quot;&gt;&lt;font style=&quot;font-size: 9px;&quot;&gt;&lt;span style=&quot;background-color: initial;&quot;&gt;-&amp;nbsp;&lt;/span&gt;&lt;span style=&quot;background-color: initial;&quot;&gt;Driver\MESH_Driver\save_basin_output.f90:&amp;nbsp;&lt;/span&gt;&lt;/font&gt;&lt;/div&gt;&lt;div style=&quot;text-align: left;&quot;&gt;&lt;span style=&quot;background-color: initial;&quot;&gt;&lt;span style=&quot;white-space: pre;&quot;&gt;&#x9;&lt;/span&gt;&lt;font style=&quot;font-size: 9px;&quot;&gt;run_save_basin_output_init,&amp;nbsp;&lt;/font&gt;&lt;/span&gt;&lt;span style=&quot;background-color: initial;&quot;&gt;&lt;font style=&quot;font-size: 9px;&quot;&gt;run_save_basin_output,&lt;/font&gt;&amp;nbsp;&lt;/span&gt;&lt;/div&gt;&lt;div style=&quot;text-align: left;&quot;&gt;&lt;span style=&quot;background-color: initial;&quot;&gt;&lt;font style=&quot;font-size: 9px;&quot;&gt;&lt;span style=&quot;white-space: pre;&quot;&gt;&#x9;&lt;/span&gt;run_save_basin_output_finalize&lt;/font&gt;&lt;/span&gt;&lt;/div&gt;&lt;div style=&quot;text-align: left;&quot;&gt;&lt;font style=&quot;font-size: 9px;&quot;&gt;&lt;span style=&quot;background-color: initial;&quot;&gt;-&amp;nbsp;&lt;/span&gt;&lt;span style=&quot;background-color: initial;&quot;&gt;Modules\simulation_statistics\SIMSTATS.F90:&amp;nbsp;&lt;/span&gt;&lt;span style=&quot;background-color: initial;&quot;&gt;stats_init,&amp;nbsp;&lt;/span&gt;&lt;/font&gt;&lt;/div&gt;&lt;div style=&quot;text-align: left;&quot;&gt;&lt;span style=&quot;background-color: initial;&quot;&gt;&lt;span style=&quot;white-space: pre;&quot;&gt;&#x9;&lt;/span&gt;&lt;font style=&quot;font-size: 9px;&quot;&gt;stats_update_stfl_daily,&amp;nbsp;&lt;/font&gt;&lt;/span&gt;&lt;span style=&quot;background-color: initial;&quot;&gt;&lt;font style=&quot;font-size: 9px;&quot;&gt;stats_write&lt;/font&gt;&lt;/span&gt;&lt;/div&gt;&lt;div style=&quot;text-align: left;&quot;&gt;&lt;font style=&quot;font-size: 9px;&quot;&gt;&lt;span style=&quot;background-color: initial;&quot;&gt;-&amp;nbsp;&lt;/span&gt;&lt;span style=&quot;background-color: initial;&quot;&gt;Driver\MESH_Driver\resumerun_read.f90: resumerun_read&lt;/span&gt;&lt;/font&gt;&lt;/div&gt;&lt;div style=&quot;text-align: left;&quot;&gt;&lt;span style=&quot;background-color: initial;&quot;&gt;&lt;font style=&quot;font-size: 9px;&quot;&gt;- Driver\MESH_Driver\read_initial_values_r2c.f90:&lt;/font&gt;&lt;/span&gt;&lt;/div&gt;&lt;div style=&quot;text-align: left;&quot;&gt;&lt;span style=&quot;background-color: initial;&quot;&gt;&lt;span style=&quot;white-space: pre;&quot;&gt;&#x9;&lt;/span&gt;&lt;font style=&quot;font-size: 9px;&quot;&gt;read_initial_values_r2c&lt;/font&gt;&lt;br&gt;&lt;/span&gt;&lt;/div&gt;&lt;div style=&quot;text-align: left;&quot;&gt;&lt;font style=&quot;font-size: 9px;&quot;&gt;&lt;span style=&quot;background-color: initial;&quot;&gt;&lt;font style=&quot;&quot;&gt;-&amp;nbsp;&amp;nbsp;&lt;/font&gt;&lt;/span&gt;&lt;span style=&quot;background-color: initial;&quot;&gt;Driver\MESH_Driver\module_dates.f90:&amp;nbsp;&lt;/span&gt;&lt;span style=&quot;background-color: initial;&quot;&gt;counter_update&lt;/span&gt;&lt;/font&gt;&lt;/div&gt;&lt;div style=&quot;text-align: left;&quot;&gt;&lt;font style=&quot;font-size: 9px;&quot;&gt;&lt;font style=&quot;&quot;&gt;&lt;span style=&quot;background-color: initial;&quot;&gt;-&amp;nbsp;&lt;/span&gt;&lt;/font&gt;&lt;span style=&quot;background-color: initial;&quot;&gt;Driver\MESH_Driver\resumerun_save.f90: resumerun_save&lt;/span&gt;&lt;/font&gt;&lt;/div&gt;&lt;div style=&quot;text-align: left;&quot;&gt;&lt;font style=&quot;&quot;&gt;&lt;span style=&quot;background-color: initial;&quot;&gt;&lt;font style=&quot;font-size: 9px;&quot;&gt;- Modules\climate_forcing_module\climate_forcing_module.f90: &lt;span style=&quot;white-space: pre;&quot;&gt;&#x9;&lt;/span&gt;climate_module_init&lt;/font&gt;&lt;br&gt;&lt;/span&gt;&lt;/font&gt;&lt;/div&gt;&lt;div style=&quot;text-align: left;&quot;&gt;&lt;font style=&quot;font-size: 9px;&quot;&gt;&lt;font style=&quot;&quot;&gt;&lt;span style=&quot;background-color: initial;&quot;&gt;&lt;font style=&quot;&quot;&gt;-&amp;nbsp;&lt;/font&gt;&lt;/span&gt;&lt;/font&gt;&lt;span style=&quot;background-color: initial;&quot;&gt;Driver\MESH_Driver\WRITE_R2C_HEADER.F90: WRITE_R2C_HEADER&lt;/span&gt;&lt;/font&gt;&lt;/div&gt;" style="rounded=0;whiteSpace=wrap;html=1;align=left;" parent="1" vertex="1">
          <mxGeometry width="350" height="530" as="geometry" />
        </mxCell>
        <mxCell id="3-_17xORnxv361ujbytA-109" value="" style="edgeStyle=orthogonalEdgeStyle;rounded=0;orthogonalLoop=1;jettySize=auto;html=1;" edge="1" parent="1" source="3-_17xORnxv361ujbytA-110" target="3-_17xORnxv361ujbytA-112">
          <mxGeometry relative="1" as="geometry" />
        </mxCell>
        <mxCell id="3-_17xORnxv361ujbytA-110" value="MESH_driver.f90" style="rounded=1;whiteSpace=wrap;html=1;fillColor=#FFCCCC;" vertex="1" parent="1">
          <mxGeometry x="422" y="40" width="120" height="60" as="geometry" />
        </mxCell>
        <mxCell id="3-_17xORnxv361ujbytA-111" value="" style="edgeStyle=orthogonalEdgeStyle;rounded=0;orthogonalLoop=1;jettySize=auto;html=1;" edge="1" parent="1" source="3-_17xORnxv361ujbytA-112" target="3-_17xORnxv361ujbytA-114">
          <mxGeometry relative="1" as="geometry" />
        </mxCell>
        <mxCell id="3-_17xORnxv361ujbytA-112" value="Variable declaration and initialization e.g. shd, fls, etc." style="whiteSpace=wrap;html=1;fillColor=#FFFFFF;rounded=1;" vertex="1" parent="1">
          <mxGeometry x="407" y="130" width="150" height="60" as="geometry" />
        </mxCell>
        <mxCell id="3-_17xORnxv361ujbytA-113" value="" style="edgeStyle=orthogonalEdgeStyle;rounded=0;orthogonalLoop=1;jettySize=auto;html=1;" edge="1" parent="1" source="3-_17xORnxv361ujbytA-114" target="3-_17xORnxv361ujbytA-116">
          <mxGeometry relative="1" as="geometry" />
        </mxCell>
        <mxCell id="3-_17xORnxv361ujbytA-114" value="call MPI_Init&lt;div&gt;call MPI_Comm_size&lt;br&gt;&lt;/div&gt;&lt;div&gt;call MPI_Comm_rank&lt;br&gt;&lt;/div&gt;" style="whiteSpace=wrap;html=1;fillColor=#FFE599;rounded=1;" vertex="1" parent="1">
          <mxGeometry x="405.75" y="210" width="152.5" height="70" as="geometry" />
        </mxCell>
        <mxCell id="3-_17xORnxv361ujbytA-115" value="" style="edgeStyle=orthogonalEdgeStyle;rounded=0;orthogonalLoop=1;jettySize=auto;html=1;" edge="1" parent="1" source="3-_17xORnxv361ujbytA-116" target="3-_17xORnxv361ujbytA-118">
          <mxGeometry relative="1" as="geometry" />
        </mxCell>
        <mxCell id="3-_17xORnxv361ujbytA-116" value="Check and get command line arguments" style="whiteSpace=wrap;html=1;fillColor=#FFFFFF;rounded=1;" vertex="1" parent="1">
          <mxGeometry x="411" y="300" width="140.25" height="70" as="geometry" />
        </mxCell>
        <mxCell id="3-_17xORnxv361ujbytA-117" value="" style="edgeStyle=orthogonalEdgeStyle;rounded=0;orthogonalLoop=1;jettySize=auto;html=1;" edge="1" parent="1" source="3-_17xORnxv361ujbytA-118" target="3-_17xORnxv361ujbytA-120">
          <mxGeometry relative="1" as="geometry" />
        </mxCell>
        <mxCell id="3-_17xORnxv361ujbytA-118" value="call Init_fls(fls)" style="whiteSpace=wrap;html=1;fillColor=#CCFFCC;rounded=1;" vertex="1" parent="1">
          <mxGeometry x="417.5" y="390" width="127.26" height="60" as="geometry" />
        </mxCell>
        <mxCell id="3-_17xORnxv361ujbytA-119" value="" style="edgeStyle=orthogonalEdgeStyle;rounded=0;orthogonalLoop=1;jettySize=auto;html=1;" edge="1" parent="1" source="3-_17xORnxv361ujbytA-120" target="3-_17xORnxv361ujbytA-122">
          <mxGeometry relative="1" as="geometry" />
        </mxCell>
        <mxCell id="3-_17xORnxv361ujbytA-120" value="call READ_INITIAL_INPUTS(fls, shd, cm, RELEASE_STRING)" style="whiteSpace=wrap;html=1;fillColor=#CCFFCC;rounded=1;" vertex="1" parent="1">
          <mxGeometry x="379.69" y="480" width="202.87" height="60" as="geometry" />
        </mxCell>
        <mxCell id="3-_17xORnxv361ujbytA-121" value="" style="edgeStyle=orthogonalEdgeStyle;rounded=0;orthogonalLoop=1;jettySize=auto;html=1;" edge="1" parent="1" source="3-_17xORnxv361ujbytA-122">
          <mxGeometry relative="1" as="geometry">
            <mxPoint x="482.17647058823536" y="640" as="targetPoint" />
          </mxGeometry>
        </mxCell>
        <mxCell id="3-_17xORnxv361ujbytA-122" value="call MPI_Barrier" style="whiteSpace=wrap;html=1;fillColor=#FFE599;rounded=1;" vertex="1" parent="1">
          <mxGeometry x="419.01" y="570" width="124.25" height="40" as="geometry" />
        </mxCell>
        <mxCell id="3-_17xORnxv361ujbytA-123" value="" style="edgeStyle=orthogonalEdgeStyle;rounded=0;orthogonalLoop=1;jettySize=auto;html=1;" edge="1" parent="1" source="3-_17xORnxv361ujbytA-126" target="3-_17xORnxv361ujbytA-127">
          <mxGeometry relative="1" as="geometry" />
        </mxCell>
        <mxCell id="3-_17xORnxv361ujbytA-124" value="Yes" style="edgeLabel;html=1;align=center;verticalAlign=middle;resizable=0;points=[];" vertex="1" connectable="0" parent="3-_17xORnxv361ujbytA-123">
          <mxGeometry x="-0.2063" y="-2" relative="1" as="geometry">
            <mxPoint as="offset" />
          </mxGeometry>
        </mxCell>
        <mxCell id="3-_17xORnxv361ujbytA-125" style="edgeStyle=orthogonalEdgeStyle;rounded=0;orthogonalLoop=1;jettySize=auto;html=1;entryX=0.5;entryY=0;entryDx=0;entryDy=0;" edge="1" parent="1" source="3-_17xORnxv361ujbytA-126" target="3-_17xORnxv361ujbytA-199">
          <mxGeometry relative="1" as="geometry" />
        </mxCell>
        <mxCell id="3-_17xORnxv361ujbytA-126" value="&lt;div&gt;ro%RUNCLIM == True&lt;/div&gt;" style="rhombus;whiteSpace=wrap;html=1;rounded=1;fillColor=#F19C99;" vertex="1" parent="1">
          <mxGeometry x="389" y="640" width="186.89" height="60" as="geometry" />
        </mxCell>
        <mxCell id="3-_17xORnxv361ujbytA-127" value="call open_input_forcing_files" style="whiteSpace=wrap;html=1;fillColor=#FFE599;rounded=1;" vertex="1" parent="1">
          <mxGeometry x="660.01" y="645" width="169.99" height="50" as="geometry" />
        </mxCell>
        <mxCell id="3-_17xORnxv361ujbytA-128" style="edgeStyle=orthogonalEdgeStyle;rounded=0;orthogonalLoop=1;jettySize=auto;html=1;entryX=0.5;entryY=0;entryDx=0;entryDy=0;" edge="1" parent="1" source="3-_17xORnxv361ujbytA-129" target="3-_17xORnxv361ujbytA-133">
          <mxGeometry relative="1" as="geometry" />
        </mxCell>
        <mxCell id="3-_17xORnxv361ujbytA-129" value="call output_variables_init(shd)&lt;div&gt;call output_variables_activate(out%d%grid, VN_QO)&lt;br&gt;&lt;/div&gt;" style="whiteSpace=wrap;html=1;fillColor=#CCFFCC;rounded=1;" vertex="1" parent="1">
          <mxGeometry x="375.61" y="920" width="226.19" height="60" as="geometry" />
        </mxCell>
        <mxCell id="3-_17xORnxv361ujbytA-130" value="" style="edgeStyle=orthogonalEdgeStyle;rounded=0;orthogonalLoop=1;jettySize=auto;html=1;" edge="1" parent="1" source="3-_17xORnxv361ujbytA-133" target="3-_17xORnxv361ujbytA-134">
          <mxGeometry relative="1" as="geometry" />
        </mxCell>
        <mxCell id="3-_17xORnxv361ujbytA-131" value="Yes" style="edgeLabel;html=1;align=center;verticalAlign=middle;resizable=0;points=[];" vertex="1" connectable="0" parent="3-_17xORnxv361ujbytA-130">
          <mxGeometry x="-0.3816" y="1" relative="1" as="geometry">
            <mxPoint as="offset" />
          </mxGeometry>
        </mxCell>
        <mxCell id="3-_17xORnxv361ujbytA-132" style="edgeStyle=orthogonalEdgeStyle;rounded=0;orthogonalLoop=1;jettySize=auto;html=1;entryX=0.5;entryY=0;entryDx=0;entryDy=0;" edge="1" parent="1" source="3-_17xORnxv361ujbytA-133" target="3-_17xORnxv361ujbytA-136">
          <mxGeometry relative="1" as="geometry" />
        </mxCell>
        <mxCell id="3-_17xORnxv361ujbytA-133" value="&lt;div&gt;ro%RUNTILE == True&lt;/div&gt;" style="rhombus;whiteSpace=wrap;html=1;rounded=1;fillColor=#F19C99;" vertex="1" parent="1">
          <mxGeometry x="396.11" y="1020" width="186.89" height="60" as="geometry" />
        </mxCell>
        <mxCell id="3-_17xORnxv361ujbytA-134" value="&lt;div&gt;call run_within_tile_init(fls, shd, cm)&lt;/div&gt;&lt;div&gt;&amp;nbsp; call run_within_grid_init(fls, shd, cm)&lt;/div&gt;" style="whiteSpace=wrap;html=1;fillColor=#CCFFCC;rounded=1;" vertex="1" parent="1">
          <mxGeometry x="125" y="1020" width="210" height="60" as="geometry" />
        </mxCell>
        <mxCell id="3-_17xORnxv361ujbytA-135" style="edgeStyle=orthogonalEdgeStyle;rounded=0;orthogonalLoop=1;jettySize=auto;html=1;entryX=0.5;entryY=0;entryDx=0;entryDy=0;" edge="1" parent="1" source="3-_17xORnxv361ujbytA-136" target="3-_17xORnxv361ujbytA-141">
          <mxGeometry relative="1" as="geometry" />
        </mxCell>
        <mxCell id="3-_17xORnxv361ujbytA-136" value="&lt;div&gt;ro%RUNGRID == True&lt;/div&gt;" style="rhombus;whiteSpace=wrap;html=1;rounded=1;fillColor=#F19C99;" vertex="1" parent="1">
          <mxGeometry x="395.65" y="1120" width="186.89" height="60" as="geometry" />
        </mxCell>
        <mxCell id="3-_17xORnxv361ujbytA-137" value="" style="edgeStyle=orthogonalEdgeStyle;rounded=0;orthogonalLoop=1;jettySize=auto;html=1;exitX=0;exitY=0.5;exitDx=0;exitDy=0;" edge="1" parent="1" source="3-_17xORnxv361ujbytA-136" target="3-_17xORnxv361ujbytA-139">
          <mxGeometry relative="1" as="geometry">
            <mxPoint x="406" y="1060" as="sourcePoint" />
            <mxPoint x="325" y="1150" as="targetPoint" />
          </mxGeometry>
        </mxCell>
        <mxCell id="3-_17xORnxv361ujbytA-138" value="Yes" style="edgeLabel;html=1;align=center;verticalAlign=middle;resizable=0;points=[];" vertex="1" connectable="0" parent="3-_17xORnxv361ujbytA-137">
          <mxGeometry x="-0.3816" y="1" relative="1" as="geometry">
            <mxPoint as="offset" />
          </mxGeometry>
        </mxCell>
        <mxCell id="3-_17xORnxv361ujbytA-139" value="call run_between_grid_init(fls, shd, cm)" style="whiteSpace=wrap;html=1;fillColor=#CCFFCC;rounded=1;" vertex="1" parent="1">
          <mxGeometry x="125" y="1130" width="230" height="40" as="geometry" />
        </mxCell>
        <mxCell id="3-_17xORnxv361ujbytA-140" style="edgeStyle=orthogonalEdgeStyle;rounded=0;orthogonalLoop=1;jettySize=auto;html=1;entryX=0.5;entryY=0;entryDx=0;entryDy=0;" edge="1" parent="1" source="3-_17xORnxv361ujbytA-141" target="3-_17xORnxv361ujbytA-148">
          <mxGeometry relative="1" as="geometry" />
        </mxCell>
        <mxCell id="3-_17xORnxv361ujbytA-141" value="&lt;div&gt;ISHEADNODE == True&lt;/div&gt;" style="rhombus;whiteSpace=wrap;html=1;rounded=1;fillColor=#F19C99;" vertex="1" parent="1">
          <mxGeometry x="395.65" y="1220" width="186.89" height="60" as="geometry" />
        </mxCell>
        <mxCell id="3-_17xORnxv361ujbytA-142" value="&lt;div&gt;&lt;span style=&quot;background-color: initial;&quot;&gt;call output_files_init(fls, shd)&lt;/span&gt;&lt;br&gt;&lt;/div&gt;&lt;div&gt;&lt;div&gt;&lt;span style=&quot;background-color: initial;&quot;&gt;call run_save_basin_output_init(fls, shd, cm)&lt;/span&gt;&lt;/div&gt;&lt;/div&gt;" style="whiteSpace=wrap;html=1;fillColor=#CCFFCC;rounded=1;" vertex="1" parent="1">
          <mxGeometry x="80" y="1207.5" width="240" height="85" as="geometry" />
        </mxCell>
        <mxCell id="3-_17xORnxv361ujbytA-143" value="" style="edgeStyle=orthogonalEdgeStyle;rounded=0;orthogonalLoop=1;jettySize=auto;html=1;exitX=0;exitY=0.5;exitDx=0;exitDy=0;entryX=1;entryY=0.5;entryDx=0;entryDy=0;" edge="1" parent="1" source="3-_17xORnxv361ujbytA-141">
          <mxGeometry relative="1" as="geometry">
            <mxPoint x="406" y="1160" as="sourcePoint" />
            <mxPoint x="360" y="1250" as="targetPoint" />
          </mxGeometry>
        </mxCell>
        <mxCell id="3-_17xORnxv361ujbytA-144" value="Yes" style="edgeLabel;html=1;align=center;verticalAlign=middle;resizable=0;points=[];" vertex="1" connectable="0" parent="3-_17xORnxv361ujbytA-143">
          <mxGeometry x="-0.3816" y="1" relative="1" as="geometry">
            <mxPoint as="offset" />
          </mxGeometry>
        </mxCell>
        <mxCell id="3-_17xORnxv361ujbytA-145" style="edgeStyle=orthogonalEdgeStyle;rounded=0;orthogonalLoop=1;jettySize=auto;html=1;entryX=1;entryY=0.5;entryDx=0;entryDy=0;" edge="1" parent="1" source="3-_17xORnxv361ujbytA-148" target="3-_17xORnxv361ujbytA-149">
          <mxGeometry relative="1" as="geometry" />
        </mxCell>
        <mxCell id="3-_17xORnxv361ujbytA-146" value="Yes" style="edgeLabel;html=1;align=center;verticalAlign=middle;resizable=0;points=[];" vertex="1" connectable="0" parent="3-_17xORnxv361ujbytA-145">
          <mxGeometry x="-0.4359" y="3" relative="1" as="geometry">
            <mxPoint as="offset" />
          </mxGeometry>
        </mxCell>
        <mxCell id="3-_17xORnxv361ujbytA-147" value="" style="edgeStyle=orthogonalEdgeStyle;rounded=0;orthogonalLoop=1;jettySize=auto;html=1;" edge="1" parent="1" source="3-_17xORnxv361ujbytA-148" target="3-_17xORnxv361ujbytA-151">
          <mxGeometry relative="1" as="geometry">
            <mxPoint x="501.8370588235295" y="1449.995821858723" as="sourcePoint" />
          </mxGeometry>
        </mxCell>
        <mxCell id="3-_17xORnxv361ujbytA-148" value="&lt;div&gt;ISHEADNODE .and. mtsflg%AUTOCALIBRATIONFLAG &amp;gt; 0&lt;/div&gt;" style="rhombus;whiteSpace=wrap;html=1;rounded=1;fillColor=#F19C99;" vertex="1" parent="1">
          <mxGeometry x="354.88" y="1320" width="269.35" height="100" as="geometry" />
        </mxCell>
        <mxCell id="3-_17xORnxv361ujbytA-149" value="call stats_init(fls)" style="whiteSpace=wrap;html=1;fillColor=#FFE599;rounded=1;" vertex="1" parent="1">
          <mxGeometry x="145" y="1353.75" width="150" height="32.5" as="geometry" />
        </mxCell>
        <mxCell id="3-_17xORnxv361ujbytA-150" style="edgeStyle=orthogonalEdgeStyle;rounded=0;orthogonalLoop=1;jettySize=auto;html=1;entryX=0.5;entryY=0;entryDx=0;entryDy=0;" edge="1" parent="1" source="3-_17xORnxv361ujbytA-151" target="3-_17xORnxv361ujbytA-210">
          <mxGeometry relative="1" as="geometry">
            <mxPoint x="488.7049999999999" y="1730" as="targetPoint" />
          </mxGeometry>
        </mxCell>
        <mxCell id="3-_17xORnxv361ujbytA-151" value="call resumerun_read(fls, shd, cm" style="whiteSpace=wrap;html=1;fillColor=#CCFFCC;rounded=1;" vertex="1" parent="1">
          <mxGeometry x="391.59999999999997" y="1450" width="195.91" height="50" as="geometry" />
        </mxCell>
        <mxCell id="3-_17xORnxv361ujbytA-152" value="" style="edgeStyle=orthogonalEdgeStyle;rounded=0;orthogonalLoop=1;jettySize=auto;html=1;exitX=0.5;exitY=1;exitDx=0;exitDy=0;" edge="1" parent="1" source="3-_17xORnxv361ujbytA-210" target="3-_17xORnxv361ujbytA-155">
          <mxGeometry relative="1" as="geometry">
            <mxPoint x="488.8000000000002" y="1810" as="sourcePoint" />
          </mxGeometry>
        </mxCell>
        <mxCell id="3-_17xORnxv361ujbytA-154" style="edgeStyle=orthogonalEdgeStyle;rounded=0;orthogonalLoop=1;jettySize=auto;html=1;entryX=0.5;entryY=0;entryDx=0;entryDy=0;" edge="1" parent="1" source="3-_17xORnxv361ujbytA-155" target="3-_17xORnxv361ujbytA-157">
          <mxGeometry relative="1" as="geometry">
            <mxPoint x="490.5550000000003" y="1950" as="targetPoint" />
          </mxGeometry>
        </mxCell>
        <mxCell id="3-_17xORnxv361ujbytA-155" value="&lt;div&gt;!&amp;gt; Update output variables with initial states.&lt;/div&gt;&lt;div&gt;&amp;nbsp; &amp;nbsp; call output_variables_reset(shd)&lt;/div&gt;&lt;div&gt;&amp;nbsp; &amp;nbsp; call output_variables_update(shd)&lt;/div&gt;" style="whiteSpace=wrap;html=1;fillColor=#CCFFCC;rounded=1;" vertex="1" parent="1">
          <mxGeometry x="370.67" y="1840" width="238.3" height="80" as="geometry" />
        </mxCell>
        <mxCell id="3-_17xORnxv361ujbytA-156" value="" style="edgeStyle=orthogonalEdgeStyle;rounded=0;orthogonalLoop=1;jettySize=auto;html=1;" edge="1" parent="1" source="3-_17xORnxv361ujbytA-157" target="3-_17xORnxv361ujbytA-159">
          <mxGeometry relative="1" as="geometry" />
        </mxCell>
        <mxCell id="3-_17xORnxv361ujbytA-157" value="Read in existing basin states for RESUMEFLAG" style="whiteSpace=wrap;html=1;fillColor=#FFFFFF;rounded=1;" vertex="1" parent="1">
          <mxGeometry x="408.33" y="2070" width="164.45" height="70" as="geometry" />
        </mxCell>
        <mxCell id="3-_17xORnxv361ujbytA-158" style="edgeStyle=orthogonalEdgeStyle;rounded=0;orthogonalLoop=1;jettySize=auto;html=1;" edge="1" parent="1" source="3-_17xORnxv361ujbytA-159" target="3-_17xORnxv361ujbytA-207">
          <mxGeometry relative="1" as="geometry" />
        </mxCell>
        <mxCell id="3-_17xORnxv361ujbytA-159" value="Time-stepping operations" style="rounded=1;whiteSpace=wrap;html=1;fillColor=#FFFFFF;" vertex="1" parent="1">
          <mxGeometry x="406.87" y="2170" width="165.91" height="60" as="geometry" />
        </mxCell>
        <mxCell id="3-_17xORnxv361ujbytA-160" style="edgeStyle=orthogonalEdgeStyle;rounded=0;orthogonalLoop=1;jettySize=auto;html=1;entryX=0.5;entryY=0;entryDx=0;entryDy=0;" edge="1" parent="1" source="3-_17xORnxv361ujbytA-161" target="3-_17xORnxv361ujbytA-163">
          <mxGeometry relative="1" as="geometry" />
        </mxCell>
        <mxCell id="3-_17xORnxv361ujbytA-161" value="End of initialization,&lt;div&gt;Start MESH&lt;/div&gt;" style="shape=process;whiteSpace=wrap;html=1;backgroundOutline=1;" vertex="1" parent="1">
          <mxGeometry x="429.56" y="2350" width="120" height="60" as="geometry" />
        </mxCell>
        <mxCell id="3-_17xORnxv361ujbytA-162" value="" style="group" vertex="1" connectable="0" parent="1">
          <mxGeometry x="215.56" y="2490" width="540" height="270" as="geometry" />
        </mxCell>
        <mxCell id="3-_17xORnxv361ujbytA-163" value="" style="rounded=0;whiteSpace=wrap;html=1;align=left;" vertex="1" parent="3-_17xORnxv361ujbytA-162">
          <mxGeometry width="540" height="270" as="geometry" />
        </mxCell>
        <mxCell id="3-_17xORnxv361ujbytA-164" value="do while (.not. ENDDATE .and. .not. ENDDATA)" style="text;html=1;align=center;verticalAlign=middle;whiteSpace=wrap;rounded=0;" vertex="1" parent="3-_17xORnxv361ujbytA-162">
          <mxGeometry y="10" width="290" height="20" as="geometry" />
        </mxCell>
        <mxCell id="3-_17xORnxv361ujbytA-165" value="&lt;div style=&quot;text-align: left;&quot;&gt;&lt;span style=&quot;background-color: initial;&quot;&gt;1.&amp;nbsp;call output_variables_reset(shd)&lt;/span&gt;&lt;/div&gt;&lt;div style=&quot;text-align: left;&quot;&gt;2.&amp;nbsp;if (ro%RUNCLIM) -&amp;gt; read_input_forcing_frame(ierr)&lt;/div&gt;&lt;div style=&quot;text-align: left;&quot;&gt;3.&amp;nbsp;if (ro%RUNGRID) -&amp;gt; call run_within_grid_mpi_irecv(fls, shd, cm)&lt;/div&gt;&lt;div style=&quot;text-align: left;&quot;&gt;4.&amp;nbsp;if (ro%RUNTILE) -&amp;gt;&amp;nbsp;&lt;span style=&quot;background-color: initial;&quot;&gt;call run_within_tile(fls, shd, cm),&lt;/span&gt;&lt;span style=&quot;background-color: initial;&quot;&gt;&amp;nbsp;call run_within_grid(fls, shd, cm)&lt;/span&gt;&lt;/div&gt;&lt;div style=&quot;text-align: left;&quot;&gt;&lt;span style=&quot;background-color: initial;&quot;&gt;5.&amp;nbsp;&lt;/span&gt;&lt;span style=&quot;background-color: initial;&quot;&gt;if (ro%RUNGRID) -&amp;gt;&amp;nbsp;&lt;/span&gt;&lt;span style=&quot;background-color: initial;&quot;&gt;call run_within_grid_mpi_isend(fls, shd, cm),&amp;nbsp;&lt;/span&gt;&lt;span style=&quot;background-color: initial;&quot;&gt;call run_between_grid(fls, shd, cm)&lt;/span&gt;&lt;/div&gt;&lt;div style=&quot;text-align: left;&quot;&gt;&lt;span style=&quot;background-color: initial;&quot;&gt;6.&amp;nbsp;&lt;/span&gt;&lt;span style=&quot;background-color: initial;&quot;&gt;if (ISHEADNODE):&lt;/span&gt;&lt;/div&gt;&lt;div style=&quot;text-align: left;&quot;&gt;&lt;span style=&quot;background-color: initial;&quot;&gt;&lt;div&gt;&lt;span style=&quot;white-space: pre;&quot;&gt;&#x9;&lt;/span&gt;call output_files_update(fls, shd)&lt;/div&gt;&lt;div&gt;&amp;nbsp;&lt;span style=&quot;white-space: pre;&quot;&gt;&#x9;&lt;/span&gt;call run_save_basin_output(fls, shd, cm)&lt;/div&gt;&lt;div&gt;&lt;span style=&quot;white-space: pre;&quot;&gt;&#x9;&lt;/span&gt;if day is same and&amp;nbsp;automatic calibration is active -&amp;gt; call stats_update_stfl_daily(fls)&lt;br&gt;&lt;/div&gt;&lt;div&gt;7. Print Status to console&lt;/div&gt;&lt;div&gt;8.&amp;nbsp;call resumerun_save(fls, shd, cm),&amp;nbsp;&lt;span style=&quot;background-color: initial;&quot;&gt;call counter_update()&lt;/span&gt;&lt;/div&gt;&lt;div&gt;&lt;span style=&quot;background-color: initial;&quot;&gt;9. Check&amp;nbsp;&lt;/span&gt;&lt;span style=&quot;background-color: initial;&quot;&gt;ENDDATE for termination of loop&lt;/span&gt;&lt;/div&gt;&lt;/span&gt;&lt;/div&gt;" style="rounded=1;whiteSpace=wrap;html=1;fillColor=#CCFFCC;" vertex="1" parent="3-_17xORnxv361ujbytA-162">
          <mxGeometry x="20.5" y="40" width="498.99" height="220" as="geometry" />
        </mxCell>
        <mxCell id="3-_17xORnxv361ujbytA-166" value="" style="edgeStyle=orthogonalEdgeStyle;rounded=0;orthogonalLoop=1;jettySize=auto;html=1;" edge="1" parent="1" source="3-_17xORnxv361ujbytA-163">
          <mxGeometry relative="1" as="geometry">
            <mxPoint x="486" y="2790" as="targetPoint" />
          </mxGeometry>
        </mxCell>
        <mxCell id="3-_17xORnxv361ujbytA-167" value="" style="edgeStyle=orthogonalEdgeStyle;rounded=0;orthogonalLoop=1;jettySize=auto;html=1;" edge="1" parent="1" source="3-_17xORnxv361ujbytA-171" target="3-_17xORnxv361ujbytA-172">
          <mxGeometry relative="1" as="geometry" />
        </mxCell>
        <mxCell id="3-_17xORnxv361ujbytA-168" value="Yes" style="edgeLabel;html=1;align=center;verticalAlign=middle;resizable=0;points=[];" vertex="1" connectable="0" parent="3-_17xORnxv361ujbytA-167">
          <mxGeometry x="-0.099" y="2" relative="1" as="geometry">
            <mxPoint as="offset" />
          </mxGeometry>
        </mxCell>
        <mxCell id="3-_17xORnxv361ujbytA-169" style="edgeStyle=orthogonalEdgeStyle;rounded=0;orthogonalLoop=1;jettySize=auto;html=1;entryX=1;entryY=0.5;entryDx=0;entryDy=0;" edge="1" parent="1" source="3-_17xORnxv361ujbytA-171" target="3-_17xORnxv361ujbytA-197">
          <mxGeometry relative="1" as="geometry">
            <Array as="points">
              <mxPoint x="760" y="2810" />
              <mxPoint x="760" y="3630" />
            </Array>
          </mxGeometry>
        </mxCell>
        <mxCell id="3-_17xORnxv361ujbytA-170" value="No" style="edgeLabel;html=1;align=center;verticalAlign=middle;resizable=0;points=[];" vertex="1" connectable="0" parent="3-_17xORnxv361ujbytA-169">
          <mxGeometry x="-0.8333" y="-2" relative="1" as="geometry">
            <mxPoint as="offset" />
          </mxGeometry>
        </mxCell>
        <mxCell id="3-_17xORnxv361ujbytA-171" value="Is Head node?" style="whiteSpace=wrap;html=1;fillColor=#FFFFFF;rounded=1;" vertex="1" parent="1">
          <mxGeometry x="412" y="2790" width="151" height="50" as="geometry" />
        </mxCell>
        <mxCell id="3-_17xORnxv361ujbytA-172" value="&lt;div&gt;call output_files_finalize(fls, shd)&lt;/div&gt;&lt;div&gt;&amp;nbsp; &amp;nbsp; call run_save_basin_output_finalize(fls, shd, cm)&lt;/div&gt;" style="whiteSpace=wrap;html=1;fillColor=#CCFFCC;rounded=1;" vertex="1" parent="1">
          <mxGeometry x="364" y="2880" width="246" height="60" as="geometry" />
        </mxCell>
        <mxCell id="3-_17xORnxv361ujbytA-173" value="" style="edgeStyle=orthogonalEdgeStyle;rounded=0;orthogonalLoop=1;jettySize=auto;html=1;" edge="1" parent="1" source="3-_17xORnxv361ujbytA-176" target="3-_17xORnxv361ujbytA-178">
          <mxGeometry relative="1" as="geometry" />
        </mxCell>
        <mxCell id="3-_17xORnxv361ujbytA-174" value="Yes" style="edgeLabel;html=1;align=center;verticalAlign=middle;resizable=0;points=[];" vertex="1" connectable="0" parent="3-_17xORnxv361ujbytA-173">
          <mxGeometry x="-0.0957" y="-2" relative="1" as="geometry">
            <mxPoint as="offset" />
          </mxGeometry>
        </mxCell>
        <mxCell id="3-_17xORnxv361ujbytA-175" style="edgeStyle=orthogonalEdgeStyle;rounded=0;orthogonalLoop=1;jettySize=auto;html=1;entryX=0.5;entryY=0;entryDx=0;entryDy=0;" edge="1" parent="1" source="3-_17xORnxv361ujbytA-176" target="3-_17xORnxv361ujbytA-182">
          <mxGeometry relative="1" as="geometry" />
        </mxCell>
        <mxCell id="3-_17xORnxv361ujbytA-176" value="&lt;div&gt;ISHEADNODE .and. mtsflg%AUTOCALIBRATIONFLAG &amp;gt; 0&lt;/div&gt;" style="rhombus;whiteSpace=wrap;html=1;rounded=1;fillColor=#F19C99;" vertex="1" parent="1">
          <mxGeometry x="339.39" y="2970" width="296.23" height="100" as="geometry" />
        </mxCell>
        <mxCell id="3-_17xORnxv361ujbytA-177" style="edgeStyle=orthogonalEdgeStyle;rounded=0;orthogonalLoop=1;jettySize=auto;html=1;entryX=0.5;entryY=0;entryDx=0;entryDy=0;" edge="1" parent="1" source="3-_17xORnxv361ujbytA-172" target="3-_17xORnxv361ujbytA-176">
          <mxGeometry relative="1" as="geometry" />
        </mxCell>
        <mxCell id="3-_17xORnxv361ujbytA-178" value="call stats_write(fls)" style="whiteSpace=wrap;html=1;fillColor=#FFE599;rounded=1;" vertex="1" parent="1">
          <mxGeometry x="157.5" y="3000" width="125" height="40" as="geometry" />
        </mxCell>
        <mxCell id="3-_17xORnxv361ujbytA-179" style="edgeStyle=orthogonalEdgeStyle;rounded=0;orthogonalLoop=1;jettySize=auto;html=1;entryX=1;entryY=0.5;entryDx=0;entryDy=0;" edge="1" parent="1" source="3-_17xORnxv361ujbytA-182" target="3-_17xORnxv361ujbytA-183">
          <mxGeometry relative="1" as="geometry">
            <mxPoint x="345" y="3130" as="targetPoint" />
          </mxGeometry>
        </mxCell>
        <mxCell id="3-_17xORnxv361ujbytA-180" value="Yes" style="edgeLabel;html=1;align=center;verticalAlign=middle;resizable=0;points=[];" vertex="1" connectable="0" parent="3-_17xORnxv361ujbytA-179">
          <mxGeometry x="-0.1655" y="2" relative="1" as="geometry">
            <mxPoint as="offset" />
          </mxGeometry>
        </mxCell>
        <mxCell id="3-_17xORnxv361ujbytA-181" style="edgeStyle=orthogonalEdgeStyle;rounded=0;orthogonalLoop=1;jettySize=auto;html=1;entryX=0.5;entryY=0;entryDx=0;entryDy=0;" edge="1" parent="1" source="3-_17xORnxv361ujbytA-182" target="3-_17xORnxv361ujbytA-187">
          <mxGeometry relative="1" as="geometry" />
        </mxCell>
        <mxCell id="3-_17xORnxv361ujbytA-182" value="&lt;div&gt;ro%RUNTILE == True&lt;/div&gt;" style="rhombus;whiteSpace=wrap;html=1;rounded=1;fillColor=#F19C99;" vertex="1" parent="1">
          <mxGeometry x="395.74999999999994" y="3100" width="186.89" height="60" as="geometry" />
        </mxCell>
        <mxCell id="3-_17xORnxv361ujbytA-183" value="&lt;div&gt;call run_within_tile_finalize(fls, shd, cm)&lt;/div&gt;&lt;div&gt;&amp;nbsp; &amp;nbsp; &amp;nbsp; &amp;nbsp; call run_within_grid_finalize(fls, shd, cm)&lt;/div&gt;" style="whiteSpace=wrap;html=1;fillColor=#CCFFCC;rounded=1;" vertex="1" parent="1">
          <mxGeometry x="80" y="3095" width="225" height="70" as="geometry" />
        </mxCell>
        <mxCell id="3-_17xORnxv361ujbytA-184" style="edgeStyle=orthogonalEdgeStyle;rounded=0;orthogonalLoop=1;jettySize=auto;html=1;entryX=1;entryY=0.5;entryDx=0;entryDy=0;" edge="1" parent="1" source="3-_17xORnxv361ujbytA-187" target="3-_17xORnxv361ujbytA-188">
          <mxGeometry relative="1" as="geometry">
            <mxPoint x="350" y="3212.5" as="targetPoint" />
          </mxGeometry>
        </mxCell>
        <mxCell id="3-_17xORnxv361ujbytA-185" value="Yes" style="edgeLabel;html=1;align=center;verticalAlign=middle;resizable=0;points=[];" vertex="1" connectable="0" parent="3-_17xORnxv361ujbytA-184">
          <mxGeometry x="-0.1173" y="3" relative="1" as="geometry">
            <mxPoint as="offset" />
          </mxGeometry>
        </mxCell>
        <mxCell id="3-_17xORnxv361ujbytA-186" style="edgeStyle=orthogonalEdgeStyle;rounded=0;orthogonalLoop=1;jettySize=auto;html=1;entryX=0.5;entryY=0;entryDx=0;entryDy=0;" edge="1" parent="1" source="3-_17xORnxv361ujbytA-187" target="3-_17xORnxv361ujbytA-215">
          <mxGeometry relative="1" as="geometry">
            <mxPoint x="489.19500000000016" y="3270" as="targetPoint" />
          </mxGeometry>
        </mxCell>
        <mxCell id="3-_17xORnxv361ujbytA-187" value="&lt;div&gt;ro%RUNGRID == True&lt;/div&gt;" style="rhombus;whiteSpace=wrap;html=1;rounded=1;fillColor=#F19C99;" vertex="1" parent="1">
          <mxGeometry x="395.61999999999995" y="3180" width="186.89" height="60" as="geometry" />
        </mxCell>
        <mxCell id="3-_17xORnxv361ujbytA-188" value="call run_between_grid_finalize(fls, shd, cm)" style="whiteSpace=wrap;html=1;fillColor=#CCFFCC;rounded=1;" vertex="1" parent="1">
          <mxGeometry x="80" y="3185" width="230" height="55" as="geometry" />
        </mxCell>
        <mxCell id="3-_17xORnxv361ujbytA-189" style="edgeStyle=orthogonalEdgeStyle;rounded=0;orthogonalLoop=1;jettySize=auto;html=1;" edge="1" parent="1" source="3-_17xORnxv361ujbytA-190" target="3-_17xORnxv361ujbytA-193">
          <mxGeometry relative="1" as="geometry" />
        </mxCell>
        <mxCell id="3-_17xORnxv361ujbytA-190" value="call resumerun_save(fls, shd, cm)" style="whiteSpace=wrap;html=1;fillColor=#CCFFCC;rounded=1;" vertex="1" parent="1">
          <mxGeometry x="400.89000000000004" y="3360" width="176.34" height="40" as="geometry" />
        </mxCell>
        <mxCell id="3-_17xORnxv361ujbytA-191" style="edgeStyle=orthogonalEdgeStyle;rounded=0;orthogonalLoop=1;jettySize=auto;html=1;entryX=1;entryY=0.5;entryDx=0;entryDy=0;" edge="1" parent="1" source="3-_17xORnxv361ujbytA-193" target="3-_17xORnxv361ujbytA-194">
          <mxGeometry relative="1" as="geometry">
            <mxPoint x="350" y="3460" as="targetPoint" />
          </mxGeometry>
        </mxCell>
        <mxCell id="3-_17xORnxv361ujbytA-192" style="edgeStyle=orthogonalEdgeStyle;rounded=0;orthogonalLoop=1;jettySize=auto;html=1;entryX=0.5;entryY=0;entryDx=0;entryDy=0;" edge="1" parent="1" source="3-_17xORnxv361ujbytA-193" target="3-_17xORnxv361ujbytA-208">
          <mxGeometry relative="1" as="geometry" />
        </mxCell>
        <mxCell id="3-_17xORnxv361ujbytA-193" value="&lt;div&gt;ISHEADNODE == True&lt;/div&gt;" style="rhombus;whiteSpace=wrap;html=1;rounded=1;fillColor=#F19C99;" vertex="1" parent="1">
          <mxGeometry x="395.75" y="3430" width="186.89" height="60" as="geometry" />
        </mxCell>
        <mxCell id="3-_17xORnxv361ujbytA-194" value="&lt;div&gt;- Save state in&amp;nbsp;SAVERESUMEFLAG&lt;/div&gt;&lt;div&gt;- Write information into resume file&lt;/div&gt;" style="whiteSpace=wrap;html=1;fillColor=#FFFFFF;rounded=1;" vertex="1" parent="1">
          <mxGeometry x="145" y="3425" width="210" height="70" as="geometry" />
        </mxCell>
        <mxCell id="3-_17xORnxv361ujbytA-195" value="" style="edgeStyle=orthogonalEdgeStyle;rounded=0;orthogonalLoop=1;jettySize=auto;html=1;exitX=0;exitY=0.5;exitDx=0;exitDy=0;" edge="1" parent="1" source="3-_17xORnxv361ujbytA-208" target="3-_17xORnxv361ujbytA-196">
          <mxGeometry relative="1" as="geometry" />
        </mxCell>
        <mxCell id="3-_17xORnxv361ujbytA-196" value="Print basin vertical water balance totals" style="whiteSpace=wrap;html=1;fillColor=#FFFFFF;rounded=1;" vertex="1" parent="1">
          <mxGeometry x="165.45999999999998" y="3530" width="182.5" height="40" as="geometry" />
        </mxCell>
        <mxCell id="3-_17xORnxv361ujbytA-197" value="End of program" style="whiteSpace=wrap;html=1;fillColor=#FFFFFF;rounded=1;" vertex="1" parent="1">
          <mxGeometry x="434.25" y="3610" width="117" height="40" as="geometry" />
        </mxCell>
        <mxCell id="3-_17xORnxv361ujbytA-198" style="edgeStyle=orthogonalEdgeStyle;rounded=0;orthogonalLoop=1;jettySize=auto;html=1;" edge="1" parent="1" source="3-_17xORnxv361ujbytA-199" target="3-_17xORnxv361ujbytA-202">
          <mxGeometry relative="1" as="geometry" />
        </mxCell>
        <mxCell id="3-_17xORnxv361ujbytA-199" value="- call get_start_date_components_from_forcing_files&lt;div&gt;- Set current timestep&lt;/div&gt;" style="whiteSpace=wrap;html=1;fillColor=#FFE599;rounded=1;" vertex="1" parent="1">
          <mxGeometry x="340.09000000000003" y="730" width="284.71" height="60" as="geometry" />
        </mxCell>
        <mxCell id="3-_17xORnxv361ujbytA-200" value="" style="edgeStyle=orthogonalEdgeStyle;rounded=0;orthogonalLoop=1;jettySize=auto;html=1;" edge="1" parent="1" source="3-_17xORnxv361ujbytA-202" target="3-_17xORnxv361ujbytA-203">
          <mxGeometry relative="1" as="geometry" />
        </mxCell>
        <mxCell id="3-_17xORnxv361ujbytA-201" style="edgeStyle=orthogonalEdgeStyle;rounded=0;orthogonalLoop=1;jettySize=auto;html=1;entryX=0.5;entryY=0;entryDx=0;entryDy=0;" edge="1" parent="1" source="3-_17xORnxv361ujbytA-202" target="3-_17xORnxv361ujbytA-129">
          <mxGeometry relative="1" as="geometry" />
        </mxCell>
        <mxCell id="3-_17xORnxv361ujbytA-202" value="&lt;div&gt;ro%RUNCLIM == True&lt;/div&gt;" style="rhombus;whiteSpace=wrap;html=1;rounded=1;fillColor=#F19C99;" vertex="1" parent="1">
          <mxGeometry x="389" y="820" width="186.89" height="60" as="geometry" />
        </mxCell>
        <mxCell id="3-_17xORnxv361ujbytA-203" value="call skip_to_first_forcing_record" style="whiteSpace=wrap;html=1;fillColor=#FFE599;rounded=1;" vertex="1" parent="1">
          <mxGeometry x="130" y="830" width="180" height="40" as="geometry" />
        </mxCell>
        <mxCell id="3-_17xORnxv361ujbytA-204" value="Read and process water balance totals and daily streamflow values" style="rounded=1;whiteSpace=wrap;html=1;fillColor=#FFFFFF;" vertex="1" parent="1">
          <mxGeometry x="182.05" y="2260" width="165.91" height="60" as="geometry" />
        </mxCell>
        <mxCell id="3-_17xORnxv361ujbytA-205" style="edgeStyle=orthogonalEdgeStyle;rounded=0;orthogonalLoop=1;jettySize=auto;html=1;entryX=1;entryY=0.5;entryDx=0;entryDy=0;" edge="1" parent="1" source="3-_17xORnxv361ujbytA-207" target="3-_17xORnxv361ujbytA-204">
          <mxGeometry relative="1" as="geometry" />
        </mxCell>
        <mxCell id="3-_17xORnxv361ujbytA-206" style="edgeStyle=orthogonalEdgeStyle;rounded=0;orthogonalLoop=1;jettySize=auto;html=1;entryX=0.5;entryY=0;entryDx=0;entryDy=0;" edge="1" parent="1" source="3-_17xORnxv361ujbytA-207" target="3-_17xORnxv361ujbytA-161">
          <mxGeometry relative="1" as="geometry" />
        </mxCell>
        <mxCell id="3-_17xORnxv361ujbytA-207" value="&lt;div&gt;ISHEADNODE == True&lt;/div&gt;" style="rhombus;whiteSpace=wrap;html=1;rounded=1;fillColor=#F19C99;" vertex="1" parent="1">
          <mxGeometry x="395.66999999999996" y="2260" width="186.89" height="60" as="geometry" />
        </mxCell>
        <mxCell id="3-_17xORnxv361ujbytA-208" value="&lt;div&gt;ro%RUNBALWB == True&lt;/div&gt;" style="rhombus;whiteSpace=wrap;html=1;rounded=1;fillColor=#F19C99;" vertex="1" parent="1">
          <mxGeometry x="395.61" y="3520" width="186.89" height="60" as="geometry" />
        </mxCell>
        <mxCell id="3-_17xORnxv361ujbytA-209" style="edgeStyle=orthogonalEdgeStyle;rounded=0;orthogonalLoop=1;jettySize=auto;html=1;entryX=0.461;entryY=-0.035;entryDx=0;entryDy=0;entryPerimeter=0;" edge="1" parent="1" source="3-_17xORnxv361ujbytA-208" target="3-_17xORnxv361ujbytA-197">
          <mxGeometry relative="1" as="geometry" />
        </mxCell>
        <mxCell id="3-_17xORnxv361ujbytA-210" value="- call read_initial_values_r2c:&lt;br&gt;reads from from&amp;nbsp;MESH_initial_values.r2c&lt;div&gt;-&amp;nbsp;call MPI_Barrier&lt;/div&gt;" style="whiteSpace=wrap;html=1;fillColor=#CCFFCC;rounded=1;" vertex="1" parent="1">
          <mxGeometry x="367" y="1700" width="244.13" height="90" as="geometry" />
        </mxCell>
        <mxCell id="3-_17xORnxv361ujbytA-213" style="edgeStyle=orthogonalEdgeStyle;rounded=0;orthogonalLoop=1;jettySize=auto;html=1;entryX=1;entryY=0.5;entryDx=0;entryDy=0;" edge="1" parent="1" source="3-_17xORnxv361ujbytA-215" target="3-_17xORnxv361ujbytA-216">
          <mxGeometry relative="1" as="geometry" />
        </mxCell>
        <mxCell id="3-_17xORnxv361ujbytA-214" value="Yes" style="edgeLabel;html=1;align=center;verticalAlign=middle;resizable=0;points=[];" vertex="1" connectable="0" parent="3-_17xORnxv361ujbytA-213">
          <mxGeometry x="-0.156" y="-1" relative="1" as="geometry">
            <mxPoint as="offset" />
          </mxGeometry>
        </mxCell>
        <mxCell id="3-_17xORnxv361ujbytA-217" style="edgeStyle=orthogonalEdgeStyle;rounded=0;orthogonalLoop=1;jettySize=auto;html=1;entryX=0.5;entryY=0;entryDx=0;entryDy=0;" edge="1" parent="1" source="3-_17xORnxv361ujbytA-215" target="3-_17xORnxv361ujbytA-190">
          <mxGeometry relative="1" as="geometry" />
        </mxCell>
        <mxCell id="3-_17xORnxv361ujbytA-215" value="&lt;div&gt;ro%RUNCLIM == True&lt;/div&gt;" style="rhombus;whiteSpace=wrap;html=1;rounded=1;fillColor=#F19C99;" vertex="1" parent="1">
          <mxGeometry x="395.60999999999996" y="3270" width="186.89" height="60" as="geometry" />
        </mxCell>
        <mxCell id="3-_17xORnxv361ujbytA-216" value="call&amp;nbsp;climate_module_finalize(fls, shd, cm)" style="whiteSpace=wrap;html=1;fillColor=#FFE599;rounded=1;" vertex="1" parent="1">
          <mxGeometry x="129.74" y="3275" width="220" height="50" as="geometry" />
        </mxCell>
      </root>
    </mxGraphModel>
  </diagram>
</mxfile>
